<?xml version="1.0" encoding="UTF-8"?>
<svg id="Layer_1" data-name="Layer 1" xmlns="http://www.w3.org/2000/svg" xmlns:xlink="http://www.w3.org/1999/xlink" viewBox="0 0 204.85 279.96">
  <defs>
    <style>
      .cls-1 {
        fill: url(#linear-gradient-2);
      }

      .cls-2 {
        fill: url(#linear-gradient);
      }
    </style>
    <linearGradient id="linear-gradient" x1="84.5" y1="18.36" x2="121.23" y2="18.36" gradientUnits="userSpaceOnUse">
      <stop offset="0" stop-color="#368aa8"/>
      <stop offset="1" stop-color="#05a9f9"/>
    </linearGradient>
    <linearGradient id="linear-gradient-2" x1="0" y1="165.94" x2="204.85" y2="165.94" xlink:href="#linear-gradient"/>
  </defs>
  <circle class="cls-2" cx="102.86" cy="18.36" r="18.36"/>
  <path class="cls-1" d="M204.72,189.02l-3.61-16.98c-.66-3.09-3.72-5.08-6.82-4.43l-70.06,14.89c-3.58.76-6.94-1.97-6.94-5.62v-27.91c0-2.71,1.9-5.06,4.55-5.62l77.56-16.49c3.09-.66,5.08-3.72,4.43-6.82l-3.61-16.98c-.66-3.09-3.72-5.08-6.82-4.43l-69.17,14.7c-3.58.76-6.94-1.97-6.94-5.62v-50.05c0-3.16-2.59-5.75-5.75-5.75h-14.42c-1.22,0-2.37.26-3.43.71l-29.62,6.3c-3.09.66-5.08,3.72-4.43,6.82l3.61,16.98c.66,3.09,3.72,5.08,6.82,4.43l11.41-2.43c3.58-.76,6.94,1.97,6.94,5.62v25.94c0,2.71-1.9,5.06-4.55,5.62L4.55,138.78c-3.09.66-5.08,3.72-4.43,6.82l3.61,16.98c.66,3.09,3.72,5.08,6.82,4.43l70.94-15.08c3.58-.76,6.94,1.97,6.94,5.62v27.91c0,2.71-1.9,5.06-4.55,5.62L5.44,207.75c-3.09.66-5.08,3.72-4.43,6.82l3.61,16.98c.66,3.09,3.72,5.08,6.82,4.43l70.06-14.89c3.58-.76,6.94,1.97,6.94,5.62v47.5c0,3.16,2.59,5.75,5.75,5.75h14.42c1.17,0,2.29-.24,3.31-.67.37,0,.75-.02,1.13-.1l66.28-14.09c3.09-.66,5.08-3.72,4.43-6.82l-3.61-16.98c-.66-3.09-3.72-5.08-6.82-4.43l-49.09,10.43c-3.58.76-6.94-1.97-6.94-5.62v-23.56c0-2.71,1.9-5.06,4.55-5.62l78.45-16.67c3.09-.66,5.08-3.72,4.43-6.82Z"/>
</svg>